<svg width="680" height="906" viewBox="0 0 680 906" fill="none" xmlns="http://www.w3.org/2000/svg">
<path fill-rule="evenodd" clip-rule="evenodd" d="M0 64C0 28.6538 28.6538 0 64 0H360C384.069 0.771098 408.18 3.89833 432.762 28.445C460.343 56.0331 460.899 83.0751 461.456 110.117C462.013 137.159 462.57 164.201 490.15 191.789C517.73 219.377 544.764 219.934 571.799 220.491C598.833 221.048 625.867 221.605 653.448 249.193C670.535 266.286 677.216 283.207 680 300V842C680 877.346 651.346 906 616 906H320C295.931 905.229 271.82 902.102 247.238 877.555C219.657 849.967 219.101 822.925 218.544 795.883C217.987 768.841 217.43 741.799 189.85 714.211C162.27 686.623 135.236 686.066 108.201 685.509C81.167 684.952 54.1328 684.395 26.5525 656.807C9.46467 639.714 2.78373 622.793 0 606V64Z" fill="black"/>
</svg>
